<svg width="320" height="120" viewBox="0 0 320 120" fill="none" xmlns="http://www.w3.org/2000/svg">
<rect width="320" height="120" fill="#FCFCFC"/>
<g id="Inputs" filter="url(#filter0_d_1_14)">
<rect x="-6289" y="-1648.53" width="8986" height="12877.5" rx="80" fill="white"/>
<g id="inputs">
<g id="Input">
<rect x="-4015.5" y="-29.5" width="6351.34" height="10562.5" rx="4.5" stroke="#7B61FF" stroke-dasharray="10 5"/>
<g id="Type=Text, Condensed=False, Help Text=False, Required=True, Icon Left=True, Icon Right=False, State=Default">
<g id=".&#226;&#157;&#150; Main / Input">
<g id="Label">
<path id="Input Label" opacity="0.8" d="M17.328 18V7.536H23.648V9.104H19.184V12.064H22.992V13.632H19.184V18H17.328ZM25.3243 18V10.144H27.1643V18H25.3243ZM26.2523 8.768C25.9216 8.768 25.6496 8.672 25.4363 8.48C25.2229 8.288 25.1163 8.03733 25.1163 7.728C25.1163 7.41867 25.2229 7.168 25.4363 6.976C25.6496 6.77333 25.9216 6.672 26.2523 6.672C26.5829 6.672 26.8549 6.77333 27.0683 6.976C27.2816 7.168 27.3883 7.41867 27.3883 7.728C27.3883 8.03733 27.2816 8.288 27.0683 8.48C26.8549 8.672 26.5829 8.768 26.2523 8.768ZM32.8718 18.192C32.3278 18.192 31.8211 18.1013 31.3518 17.92C30.8824 17.728 30.4718 17.456 30.1198 17.104C29.7678 16.752 29.4904 16.3253 29.2878 15.824C29.0958 15.312 28.9998 14.7307 28.9998 14.08C28.9998 13.44 29.1011 12.864 29.3038 12.352C29.5064 11.84 29.7731 11.408 30.1038 11.056C30.4451 10.704 30.8344 10.432 31.2718 10.24C31.7091 10.048 32.1571 9.952 32.6158 9.952C33.1491 9.952 33.6184 10.0427 34.0238 10.224C34.4291 10.4053 34.7651 10.6613 35.0318 10.992C35.3091 11.3227 35.5171 11.7173 35.6558 12.176C35.7944 12.6347 35.8638 13.136 35.8638 13.68C35.8638 13.8613 35.8531 14.032 35.8318 14.192C35.8211 14.352 35.8051 14.48 35.7838 14.576H30.7918C30.8771 15.28 31.1224 15.824 31.5278 16.208C31.9438 16.5813 32.4718 16.768 33.1118 16.768C33.4531 16.768 33.7678 16.72 34.0558 16.624C34.3544 16.5173 34.6478 16.3733 34.9358 16.192L35.5598 17.344C35.1864 17.5893 34.7704 17.792 34.3118 17.952C33.8531 18.112 33.3731 18.192 32.8718 18.192ZM30.7758 13.328H34.2638C34.2638 12.72 34.1304 12.2453 33.8638 11.904C33.6078 11.552 33.2078 11.376 32.6638 11.376C32.1944 11.376 31.7838 11.5413 31.4318 11.872C31.0798 12.2027 30.8611 12.688 30.7758 13.328ZM39.4131 18.192C38.7518 18.192 38.2878 17.9947 38.0211 17.6C37.7545 17.2053 37.6211 16.6667 37.6211 15.984V6.704H39.4611V16.08C39.4611 16.304 39.5038 16.464 39.5891 16.56C39.6745 16.6453 39.7651 16.688 39.8611 16.688C39.9038 16.688 39.9411 16.688 39.9731 16.688C40.0158 16.688 40.0745 16.6773 40.1491 16.656L40.3891 18.032C40.1438 18.1387 39.8185 18.192 39.4131 18.192ZM44.7169 18.192C43.7249 18.192 42.9355 17.8347 42.3489 17.12C41.7729 16.3947 41.4849 15.3813 41.4849 14.08C41.4849 13.44 41.5755 12.864 41.7569 12.352C41.9489 11.84 42.1995 11.408 42.5089 11.056C42.8182 10.704 43.1702 10.432 43.5649 10.24C43.9702 10.048 44.3862 9.952 44.8129 9.952C45.2609 9.952 45.6395 10.032 45.9489 10.192C46.2582 10.3413 46.5675 10.5493 46.8769 10.816L46.8129 9.552V6.704H48.6529V18H47.1329L47.0049 17.152H46.9409C46.6529 17.44 46.3169 17.6853 45.9329 17.888C45.5489 18.0907 45.1435 18.192 44.7169 18.192ZM45.1649 16.672C45.7515 16.672 46.3009 16.3787 46.8129 15.792V12.128C46.5355 11.8827 46.2635 11.712 45.9969 11.616C45.7409 11.52 45.4795 11.472 45.2129 11.472C44.7009 11.472 44.2689 11.696 43.9169 12.144C43.5649 12.592 43.3889 13.232 43.3889 14.064C43.3889 14.9173 43.5382 15.568 43.8369 16.016C44.1462 16.4533 44.5889 16.672 45.1649 16.672ZM54.3593 18V7.536H56.2153V16.432H60.5673V18H54.3593ZM64.1345 18.192C63.4412 18.192 62.8812 17.984 62.4545 17.568C62.0278 17.1413 61.8145 16.5813 61.8145 15.888C61.8145 15.472 61.8998 15.104 62.0705 14.784C62.2518 14.4533 62.5292 14.1707 62.9025 13.936C63.2865 13.7013 63.7665 13.504 64.3425 13.344C64.9292 13.184 65.6278 13.0613 66.4385 12.976C66.4278 12.7733 66.3958 12.5813 66.3425 12.4C66.2998 12.208 66.2198 12.0427 66.1025 11.904C65.9958 11.7547 65.8518 11.6427 65.6705 11.568C65.4892 11.4827 65.2652 11.44 64.9985 11.44C64.6145 11.44 64.2358 11.5147 63.8625 11.664C63.4998 11.8133 63.1425 11.9947 62.7905 12.208L62.1185 10.976C62.5558 10.6987 63.0465 10.4587 63.5905 10.256C64.1345 10.0533 64.7212 9.952 65.3505 9.952C66.3318 9.952 67.0625 10.2453 67.5425 10.832C68.0332 11.408 68.2785 12.2453 68.2785 13.344V18H66.7585L66.6305 17.136H66.5665C66.2145 17.4347 65.8358 17.6853 65.4305 17.888C65.0358 18.0907 64.6038 18.192 64.1345 18.192ZM64.7265 16.752C65.0465 16.752 65.3345 16.6773 65.5905 16.528C65.8572 16.3787 66.1398 16.1653 66.4385 15.888V14.128C65.9052 14.192 65.4572 14.2773 65.0945 14.384C64.7318 14.4907 64.4385 14.6133 64.2145 14.752C63.9905 14.88 63.8305 15.0293 63.7345 15.2C63.6385 15.3707 63.5905 15.552 63.5905 15.744C63.5905 16.096 63.6972 16.352 63.9105 16.512C64.1238 16.672 64.3958 16.752 64.7265 16.752ZM74.2885 18.192C73.9258 18.192 73.5578 18.1067 73.1845 17.936C72.8218 17.7547 72.4752 17.4987 72.1445 17.168H72.0965L71.9365 18H70.4805V6.704H72.3205V9.616L72.2725 10.928C72.6032 10.64 72.9605 10.4053 73.3445 10.224C73.7392 10.0427 74.1392 9.952 74.5445 9.952C75.0352 9.952 75.4725 10.048 75.8565 10.24C76.2405 10.4213 76.5658 10.688 76.8325 11.04C77.0992 11.3813 77.3018 11.7973 77.4405 12.288C77.5792 12.7787 77.6485 13.328 77.6485 13.936C77.6485 14.608 77.5525 15.2107 77.3605 15.744C77.1792 16.2667 76.9338 16.7093 76.6245 17.072C76.3152 17.4347 75.9578 17.712 75.5525 17.904C75.1472 18.096 74.7258 18.192 74.2885 18.192ZM73.9045 16.672C74.4272 16.672 74.8645 16.448 75.2165 16C75.5685 15.5413 75.7445 14.864 75.7445 13.968C75.7445 13.1787 75.6112 12.5653 75.3445 12.128C75.0778 11.6907 74.6458 11.472 74.0485 11.472C73.4938 11.472 72.9178 11.7653 72.3205 12.352V16.016C72.5978 16.2613 72.8698 16.432 73.1365 16.528C73.4138 16.624 73.6698 16.672 73.9045 16.672ZM82.8561 18.192C82.3121 18.192 81.8055 18.1013 81.3361 17.92C80.8668 17.728 80.4561 17.456 80.1041 17.104C79.7521 16.752 79.4748 16.3253 79.2721 15.824C79.0801 15.312 78.9841 14.7307 78.9841 14.08C78.9841 13.44 79.0855 12.864 79.2881 12.352C79.4908 11.84 79.7575 11.408 80.0881 11.056C80.4295 10.704 80.8188 10.432 81.2561 10.24C81.6935 10.048 82.1415 9.952 82.6001 9.952C83.1335 9.952 83.6028 10.0427 84.0081 10.224C84.4135 10.4053 84.7495 10.6613 85.0161 10.992C85.2935 11.3227 85.5015 11.7173 85.6401 12.176C85.7788 12.6347 85.8481 13.136 85.8481 13.68C85.8481 13.8613 85.8375 14.032 85.8161 14.192C85.8055 14.352 85.7895 14.48 85.7681 14.576H80.7761C80.8615 15.28 81.1068 15.824 81.5121 16.208C81.9281 16.5813 82.4561 16.768 83.0961 16.768C83.4375 16.768 83.7521 16.72 84.0401 16.624C84.3388 16.5173 84.6321 16.3733 84.9201 16.192L85.5441 17.344C85.1708 17.5893 84.7548 17.792 84.2961 17.952C83.8375 18.112 83.3575 18.192 82.8561 18.192ZM80.7601 13.328H84.2481C84.2481 12.72 84.1148 12.2453 83.8481 11.904C83.5921 11.552 83.1921 11.376 82.6481 11.376C82.1788 11.376 81.7681 11.5413 81.4161 11.872C81.0641 12.2027 80.8455 12.688 80.7601 13.328ZM89.3975 18.192C88.7362 18.192 88.2722 17.9947 88.0055 17.6C87.7388 17.2053 87.6055 16.6667 87.6055 15.984V6.704H89.4455V16.08C89.4455 16.304 89.4882 16.464 89.5735 16.56C89.6588 16.6453 89.7495 16.688 89.8455 16.688C89.8882 16.688 89.9255 16.688 89.9575 16.688C90.0002 16.688 90.0588 16.6773 90.1335 16.656L90.3735 18.032C90.1282 18.1387 89.8028 18.192 89.3975 18.192Z" fill="#09101D"/>
<path id="Required Asterisk" opacity="0.8" d="M92.859 10.008L92.196 9.527L92.95 8.253L91.624 7.668L91.871 6.888L93.288 7.213L93.431 5.744H94.25L94.393 7.213L95.823 6.888L96.07 7.668L94.731 8.253L95.485 9.527L94.822 10.008L93.847 8.877L92.859 10.008Z" fill="#DA1414"/>
</g>
<g id="Input_2">
<rect x="0.5" y="32.5" width="319" height="47" rx="7.5" fill="white"/>
<rect x="0.5" y="32.5" width="319" height="47" rx="7.5" stroke="#858C94"/>
<g id="Left Icon + Text">
<g id="Communication / phone">
<mask id="mask0_1_14" style="mask-type:alpha" maskUnits="userSpaceOnUse" x="19" y="47" width="18" height="18">
<g id="Icon Mask">
<path id="Round" d="M35.2222 59.2676L32.6822 58.9776C32.0722 58.9076 31.4722 59.1176 31.0422 59.5476L29.2022 61.3876C26.3722 59.9476 24.0522 57.6376 22.6122 54.7976L24.4622 52.9476C24.8922 52.5176 25.1022 51.9176 25.0322 51.3076L24.7422 48.7876C24.6222 47.7776 23.7722 47.0176 22.7522 47.0176H21.0222C19.8922 47.0176 18.9522 47.9576 19.0222 49.0876C19.5522 57.6276 26.3822 64.4476 34.9122 64.9776C36.0422 65.0476 36.9822 64.1076 36.9822 62.9776V61.2476C36.9922 60.2376 36.2322 59.3876 35.2222 59.2676Z" fill="black"/>
</g>
</mask>
<g mask="url(#mask0_1_14)">
<rect id="Color Fill" x="16" y="44" width="24" height="24" fill="#858C94"/>
</g>
</g>
<path id="Text Area" opacity="0.5" d="M45.328 62V51.536H47.184V62H45.328ZM49.6836 62V54.144H51.2036L51.3316 55.2H51.3956C51.7476 54.8587 52.1263 54.5653 52.5316 54.32C52.9476 54.0747 53.4276 53.952 53.9716 53.952C54.8143 53.952 55.4276 54.224 55.8116 54.768C56.1956 55.3013 56.3876 56.0693 56.3876 57.072V62H54.5476V57.312C54.5476 56.6613 54.4516 56.2027 54.2596 55.936C54.0676 55.6693 53.753 55.536 53.3156 55.536C52.9743 55.536 52.6703 55.6213 52.4036 55.792C52.1476 55.952 51.8543 56.192 51.5236 56.512V62H49.6836ZM58.6368 65.104V54.144H60.1568L60.2848 54.976H60.3488C60.6794 54.6987 61.0474 54.4587 61.4528 54.256C61.8581 54.0533 62.2794 53.952 62.7168 53.952C63.2074 53.952 63.6394 54.048 64.0128 54.24C64.3968 54.4213 64.7221 54.688 64.9888 55.04C65.2554 55.392 65.4581 55.8133 65.5968 56.304C65.7354 56.7947 65.8048 57.344 65.8048 57.952C65.8048 58.624 65.7088 59.2267 65.5168 59.76C65.3354 60.2827 65.0901 60.7253 64.7808 61.088C64.4714 61.44 64.1141 61.712 63.7088 61.904C63.3034 62.096 62.8821 62.192 62.4448 62.192C62.1034 62.192 61.7621 62.1173 61.4208 61.968C61.0794 61.8187 60.7488 61.6053 60.4288 61.328L60.4768 62.64V65.104H58.6368ZM62.0608 60.672C62.5834 60.672 63.0208 60.448 63.3728 60C63.7248 59.5413 63.9008 58.864 63.9008 57.968C63.9008 57.1787 63.7674 56.5653 63.5008 56.128C63.2341 55.6907 62.8021 55.472 62.2048 55.472C61.6501 55.472 61.0741 55.7653 60.4768 56.352V60.016C60.7648 60.2613 61.0421 60.432 61.3088 60.528C61.5754 60.624 61.8261 60.672 62.0608 60.672ZM70.004 62.192C69.1613 62.192 68.548 61.9253 68.164 61.392C67.78 60.848 67.588 60.0747 67.588 59.072V54.144H69.428V58.832C69.428 59.4827 69.524 59.9413 69.716 60.208C69.908 60.4747 70.2173 60.608 70.644 60.608C70.9853 60.608 71.284 60.5227 71.54 60.352C71.8067 60.1813 72.0893 59.904 72.388 59.52V54.144H74.228V62H72.724L72.58 60.848H72.532C72.1907 61.2533 71.8173 61.5787 71.412 61.824C71.0173 62.0693 70.548 62.192 70.004 62.192ZM79.3266 62.192C78.868 62.192 78.4786 62.1227 78.1586 61.984C77.8493 61.8453 77.5933 61.6533 77.3906 61.408C77.1986 61.152 77.0546 60.8533 76.9586 60.512C76.8733 60.16 76.8306 59.7707 76.8306 59.344V55.6H75.7106V54.224L76.9266 54.144L77.1506 52H78.6866V54.144H80.6866V55.6H78.6866V59.344C78.6866 60.2613 79.0546 60.72 79.7906 60.72C79.9293 60.72 80.068 60.704 80.2066 60.672C80.356 60.64 80.4893 60.5973 80.6066 60.544L80.9266 61.904C80.7133 61.9787 80.468 62.0427 80.1906 62.096C79.924 62.16 79.636 62.192 79.3266 62.192Z" fill="#09101D"/>
</g>
</g>
<g id=".&#226;&#157;&#150; Main / Input Validation">
<rect y="88" width="320" height="32" rx="8" fill="#EBEEF2"/>
<g id="Icon">
<g id="Alert / error">
<mask id="mask1_1_14" style="mask-type:alpha" maskUnits="userSpaceOnUse" x="17" y="97" width="14" height="14">
<g id="Icon Mask_2">
<path id="Round_2" fill-rule="evenodd" clip-rule="evenodd" d="M23.9997 97.334C20.3197 97.334 17.333 100.321 17.333 104.001C17.333 107.681 20.3197 110.667 23.9997 110.667C27.6797 110.667 30.6663 107.681 30.6663 104.001C30.6663 100.321 27.6797 97.334 23.9997 97.334ZM23.9997 104.667C23.633 104.667 23.333 104.367 23.333 104.001V101.334C23.333 100.967 23.633 100.667 23.9997 100.667C24.3663 100.667 24.6663 100.967 24.6663 101.334V104.001C24.6663 104.367 24.3663 104.667 23.9997 104.667ZM23.333 106.001V107.334H24.6663V106.001H23.333Z" fill="black"/>
</g>
</mask>
<g mask="url(#mask1_1_14)">
<rect id="Color Fill_2" x="16" y="96" width="16" height="16" fill="#394452"/>
</g>
</g>
</g>
<path id="alert message" d="M38.938 109V101.382H36.364V100.472H42.604V101.382H40.03V109H38.938ZM44.0357 109V99.744H45.1017V102.266L45.0627 103.566C45.3661 103.28 45.6824 103.037 46.0117 102.838C46.3411 102.63 46.7267 102.526 47.1687 102.526C47.8361 102.526 48.3214 102.734 48.6247 103.15C48.9367 103.566 49.0927 104.181 49.0927 104.996V109H48.0267V105.139C48.0267 104.541 47.9314 104.112 47.7407 103.852C47.5501 103.583 47.2467 103.449 46.8307 103.449C46.5014 103.449 46.2111 103.531 45.9597 103.696C45.7084 103.861 45.4224 104.103 45.1017 104.424V109H44.0357ZM51.107 109V102.682H52.173V109H51.107ZM51.653 101.382C51.445 101.382 51.2673 101.317 51.12 101.187C50.9813 101.057 50.912 100.892 50.912 100.693C50.912 100.485 50.9813 100.32 51.12 100.199C51.2673 100.069 51.445 100.004 51.653 100.004C51.861 100.004 52.0343 100.069 52.173 100.199C52.3203 100.32 52.394 100.485 52.394 100.693C52.394 100.892 52.3203 101.057 52.173 101.187C52.0343 101.317 51.861 101.382 51.653 101.382ZM55.9572 109.156C55.5066 109.156 55.0776 109.074 54.6702 108.909C54.2629 108.744 53.9076 108.536 53.6042 108.285L54.1372 107.57C54.4146 107.795 54.6962 107.977 54.9822 108.116C55.2769 108.255 55.6149 108.324 55.9962 108.324C56.4122 108.324 56.7242 108.229 56.9322 108.038C57.1402 107.847 57.2442 107.613 57.2442 107.336C57.2442 107.171 57.2009 107.028 57.1142 106.907C57.0276 106.786 56.9149 106.682 56.7762 106.595C56.6462 106.5 56.4946 106.417 56.3212 106.348C56.1479 106.279 55.9746 106.209 55.8012 106.14C55.5759 106.062 55.3506 105.975 55.1252 105.88C54.8999 105.776 54.6962 105.655 54.5142 105.516C54.3409 105.369 54.1979 105.2 54.0852 105.009C53.9726 104.818 53.9162 104.589 53.9162 104.32C53.9162 104.069 53.9639 103.835 54.0592 103.618C54.1632 103.393 54.3062 103.202 54.4882 103.046C54.6789 102.881 54.9086 102.756 55.1772 102.669C55.4459 102.574 55.7492 102.526 56.0872 102.526C56.4859 102.526 56.8499 102.595 57.1792 102.734C57.5172 102.873 57.8076 103.042 58.0502 103.241L57.5432 103.917C57.3266 103.752 57.1012 103.618 56.8672 103.514C56.6332 103.41 56.3776 103.358 56.1002 103.358C55.7016 103.358 55.4069 103.449 55.2162 103.631C55.0342 103.813 54.9432 104.025 54.9432 104.268C54.9432 104.415 54.9822 104.545 55.0602 104.658C55.1382 104.762 55.2422 104.857 55.3722 104.944C55.5022 105.022 55.6496 105.096 55.8142 105.165C55.9876 105.226 56.1652 105.291 56.3472 105.36C56.5726 105.447 56.7979 105.538 57.0232 105.633C57.2572 105.728 57.4652 105.85 57.6472 105.997C57.8292 106.136 57.9766 106.309 58.0892 106.517C58.2106 106.725 58.2712 106.976 58.2712 107.271C58.2712 107.531 58.2192 107.774 58.1152 107.999C58.0199 108.224 57.8726 108.424 57.6732 108.597C57.4826 108.77 57.2399 108.905 56.9452 109C56.6592 109.104 56.3299 109.156 55.9572 109.156ZM62.3551 109V102.682H63.4211V109H62.3551ZM62.9011 101.382C62.6931 101.382 62.5154 101.317 62.3681 101.187C62.2294 101.057 62.1601 100.892 62.1601 100.693C62.1601 100.485 62.2294 100.32 62.3681 100.199C62.5154 100.069 62.6931 100.004 62.9011 100.004C63.1091 100.004 63.2824 100.069 63.4211 100.199C63.5684 100.32 63.6421 100.485 63.6421 100.693C63.6421 100.892 63.5684 101.057 63.4211 101.187C63.2824 101.317 63.1091 101.382 62.9011 101.382ZM67.2053 109.156C66.7546 109.156 66.3256 109.074 65.9183 108.909C65.5109 108.744 65.1556 108.536 64.8523 108.285L65.3853 107.57C65.6626 107.795 65.9443 107.977 66.2303 108.116C66.5249 108.255 66.8629 108.324 67.2443 108.324C67.6603 108.324 67.9723 108.229 68.1803 108.038C68.3883 107.847 68.4923 107.613 68.4923 107.336C68.4923 107.171 68.4489 107.028 68.3623 106.907C68.2756 106.786 68.1629 106.682 68.0243 106.595C67.8943 106.5 67.7426 106.417 67.5693 106.348C67.3959 106.279 67.2226 106.209 67.0493 106.14C66.8239 106.062 66.5986 105.975 66.3733 105.88C66.1479 105.776 65.9443 105.655 65.7623 105.516C65.5889 105.369 65.4459 105.2 65.3333 105.009C65.2206 104.818 65.1643 104.589 65.1643 104.32C65.1643 104.069 65.2119 103.835 65.3073 103.618C65.4113 103.393 65.5543 103.202 65.7363 103.046C65.9269 102.881 66.1566 102.756 66.4253 102.669C66.6939 102.574 66.9973 102.526 67.3353 102.526C67.7339 102.526 68.0979 102.595 68.4273 102.734C68.7653 102.873 69.0556 103.042 69.2983 103.241L68.7913 103.917C68.5746 103.752 68.3493 103.618 68.1153 103.514C67.8813 103.41 67.6256 103.358 67.3483 103.358C66.9496 103.358 66.6549 103.449 66.4643 103.631C66.2823 103.813 66.1913 104.025 66.1913 104.268C66.1913 104.415 66.2303 104.545 66.3083 104.658C66.3863 104.762 66.4903 104.857 66.6203 104.944C66.7503 105.022 66.8976 105.096 67.0623 105.165C67.2356 105.226 67.4133 105.291 67.5953 105.36C67.8206 105.447 68.0459 105.538 68.2713 105.633C68.5053 105.728 68.7133 105.85 68.8953 105.997C69.0773 106.136 69.2246 106.309 69.3373 106.517C69.4586 106.725 69.5193 106.976 69.5193 107.271C69.5193 107.531 69.4673 107.774 69.3633 107.999C69.2679 108.224 69.1206 108.424 68.9213 108.597C68.7306 108.77 68.4879 108.905 68.1933 109C67.9073 109.104 67.5779 109.156 67.2053 109.156ZM75.0591 109.156C74.5304 109.156 74.0884 109 73.7331 108.688C73.3864 108.376 73.2131 107.934 73.2131 107.362C73.2131 106.669 73.5208 106.14 74.1361 105.776C74.7514 105.403 75.7351 105.143 77.0871 104.996C77.0871 104.797 77.0654 104.602 77.0221 104.411C76.9874 104.22 76.9224 104.051 76.8271 103.904C76.7318 103.757 76.5974 103.64 76.4241 103.553C76.2594 103.458 76.0471 103.41 75.7871 103.41C75.4231 103.41 75.0808 103.479 74.7601 103.618C74.4394 103.757 74.1534 103.913 73.9021 104.086L73.4861 103.345C73.7808 103.154 74.1404 102.972 74.5651 102.799C74.9898 102.617 75.4578 102.526 75.9691 102.526C76.7404 102.526 77.2994 102.764 77.6461 103.241C77.9928 103.709 78.1661 104.337 78.1661 105.126V109H77.2821L77.1911 108.246H77.1521C76.8488 108.497 76.5238 108.714 76.1771 108.896C75.8304 109.069 75.4578 109.156 75.0591 109.156ZM75.3711 108.298C75.6744 108.298 75.9604 108.229 76.2291 108.09C76.4978 107.943 76.7838 107.73 77.0871 107.453V105.698C76.5584 105.767 76.1121 105.85 75.7481 105.945C75.3928 106.04 75.1024 106.153 74.8771 106.283C74.6604 106.413 74.5001 106.565 74.3961 106.738C74.3008 106.903 74.2531 107.085 74.2531 107.284C74.2531 107.648 74.3614 107.908 74.5781 108.064C74.7948 108.22 75.0591 108.298 75.3711 108.298ZM82.7564 109V102.682H83.6404L83.7314 103.592H83.7704C84.0478 103.289 84.3468 103.037 84.6674 102.838C84.9968 102.63 85.3521 102.526 85.7334 102.526C86.2188 102.526 86.5958 102.634 86.8644 102.851C87.1418 103.059 87.3454 103.354 87.4754 103.735C87.8048 103.371 88.1341 103.081 88.4634 102.864C88.8014 102.639 89.1654 102.526 89.5554 102.526C90.2054 102.526 90.6864 102.734 90.9984 103.15C91.3191 103.566 91.4794 104.181 91.4794 104.996V109H90.4134V105.139C90.4134 104.541 90.3181 104.112 90.1274 103.852C89.9368 103.583 89.6421 103.449 89.2434 103.449C88.7668 103.449 88.2381 103.774 87.6574 104.424V109H86.5914V105.139C86.5914 104.541 86.4961 104.112 86.3054 103.852C86.1148 103.583 85.8158 103.449 85.4084 103.449C84.9318 103.449 84.4031 103.774 83.8224 104.424V109H82.7564ZM96.0958 109.156C95.6711 109.156 95.2724 109.082 94.8998 108.935C94.5358 108.779 94.2151 108.562 93.9378 108.285C93.6691 107.999 93.4568 107.652 93.3008 107.245C93.1448 106.838 93.0668 106.374 93.0668 105.854C93.0668 105.334 93.1448 104.87 93.3008 104.463C93.4654 104.047 93.6778 103.696 93.9378 103.41C94.2064 103.124 94.5098 102.907 94.8478 102.76C95.1858 102.604 95.5368 102.526 95.9007 102.526C96.2994 102.526 96.6548 102.595 96.9668 102.734C97.2874 102.873 97.5518 103.072 97.7598 103.332C97.9764 103.592 98.1411 103.904 98.2538 104.268C98.3664 104.632 98.4228 105.039 98.4228 105.49C98.4228 105.603 98.4184 105.715 98.4098 105.828C98.4098 105.932 98.4011 106.023 98.3838 106.101H94.1198C94.1631 106.777 94.3711 107.314 94.7438 107.713C95.1251 108.103 95.6191 108.298 96.2258 108.298C96.5291 108.298 96.8064 108.255 97.0578 108.168C97.3178 108.073 97.5648 107.951 97.7988 107.804L98.1758 108.506C97.8984 108.679 97.5908 108.831 97.2528 108.961C96.9148 109.091 96.5291 109.156 96.0958 109.156ZM94.1068 105.334H97.4868C97.4868 104.693 97.3481 104.207 97.0708 103.878C96.8021 103.54 96.4208 103.371 95.9268 103.371C95.7014 103.371 95.4848 103.414 95.2768 103.501C95.0774 103.588 94.8954 103.718 94.7308 103.891C94.5661 104.056 94.4274 104.259 94.3148 104.502C94.2108 104.745 94.1414 105.022 94.1068 105.334ZM101.635 109.156C101.184 109.156 100.755 109.074 100.348 108.909C99.9406 108.744 99.5853 108.536 99.282 108.285L99.815 107.57C100.092 107.795 100.374 107.977 100.66 108.116C100.955 108.255 101.293 108.324 101.674 108.324C102.09 108.324 102.402 108.229 102.61 108.038C102.818 107.847 102.922 107.613 102.922 107.336C102.922 107.171 102.879 107.028 102.792 106.907C102.705 106.786 102.593 106.682 102.454 106.595C102.324 106.5 102.172 106.417 101.999 106.348C101.826 106.279 101.652 106.209 101.479 106.14C101.254 106.062 101.028 105.975 100.803 105.88C100.578 105.776 100.374 105.655 100.192 105.516C100.019 105.369 99.8756 105.2 99.763 105.009C99.6503 104.818 99.594 104.589 99.594 104.32C99.594 104.069 99.6416 103.835 99.737 103.618C99.841 103.393 99.984 103.202 100.166 103.046C100.357 102.881 100.586 102.756 100.855 102.669C101.124 102.574 101.427 102.526 101.765 102.526C102.164 102.526 102.528 102.595 102.857 102.734C103.195 102.873 103.485 103.042 103.728 103.241L103.221 103.917C103.004 103.752 102.779 103.618 102.545 103.514C102.311 103.41 102.055 103.358 101.778 103.358C101.379 103.358 101.085 103.449 100.894 103.631C100.712 103.813 100.621 104.025 100.621 104.268C100.621 104.415 100.66 104.545 100.738 104.658C100.816 104.762 100.92 104.857 101.05 104.944C101.18 105.022 101.327 105.096 101.492 105.165C101.665 105.226 101.843 105.291 102.025 105.36C102.25 105.447 102.476 105.538 102.701 105.633C102.935 105.728 103.143 105.85 103.325 105.997C103.507 106.136 103.654 106.309 103.767 106.517C103.888 106.725 103.949 106.976 103.949 107.271C103.949 107.531 103.897 107.774 103.793 107.999C103.698 108.224 103.55 108.424 103.351 108.597C103.16 108.77 102.918 108.905 102.623 109C102.337 109.104 102.008 109.156 101.635 109.156ZM107.081 109.156C106.631 109.156 106.202 109.074 105.794 108.909C105.387 108.744 105.032 108.536 104.728 108.285L105.261 107.57C105.539 107.795 105.82 107.977 106.106 108.116C106.401 108.255 106.739 108.324 107.12 108.324C107.536 108.324 107.848 108.229 108.056 108.038C108.264 107.847 108.368 107.613 108.368 107.336C108.368 107.171 108.325 107.028 108.238 106.907C108.152 106.786 108.039 106.682 107.9 106.595C107.77 106.5 107.619 106.417 107.445 106.348C107.272 106.279 107.099 106.209 106.925 106.14C106.7 106.062 106.475 105.975 106.249 105.88C106.024 105.776 105.82 105.655 105.638 105.516C105.465 105.369 105.322 105.2 105.209 105.009C105.097 104.818 105.04 104.589 105.04 104.32C105.04 104.069 105.088 103.835 105.183 103.618C105.287 103.393 105.43 103.202 105.612 103.046C105.803 102.881 106.033 102.756 106.301 102.669C106.57 102.574 106.873 102.526 107.211 102.526C107.61 102.526 107.974 102.595 108.303 102.734C108.641 102.873 108.932 103.042 109.174 103.241L108.667 103.917C108.451 103.752 108.225 103.618 107.991 103.514C107.757 103.41 107.502 103.358 107.224 103.358C106.826 103.358 106.531 103.449 106.34 103.631C106.158 103.813 106.067 104.025 106.067 104.268C106.067 104.415 106.106 104.545 106.184 104.658C106.262 104.762 106.366 104.857 106.496 104.944C106.626 105.022 106.774 105.096 106.938 105.165C107.112 105.226 107.289 105.291 107.471 105.36C107.697 105.447 107.922 105.538 108.147 105.633C108.381 105.728 108.589 105.85 108.771 105.997C108.953 106.136 109.101 106.309 109.213 106.517C109.335 106.725 109.395 106.976 109.395 107.271C109.395 107.531 109.343 107.774 109.239 107.999C109.144 108.224 108.997 108.424 108.797 108.597C108.607 108.77 108.364 108.905 108.069 109C107.783 109.104 107.454 109.156 107.081 109.156ZM112.333 109.156C111.804 109.156 111.362 109 111.007 108.688C110.66 108.376 110.487 107.934 110.487 107.362C110.487 106.669 110.794 106.14 111.41 105.776C112.025 105.403 113.009 105.143 114.361 104.996C114.361 104.797 114.339 104.602 114.296 104.411C114.261 104.22 114.196 104.051 114.101 103.904C114.005 103.757 113.871 103.64 113.698 103.553C113.533 103.458 113.321 103.41 113.061 103.41C112.697 103.41 112.354 103.479 112.034 103.618C111.713 103.757 111.427 103.913 111.176 104.086L110.76 103.345C111.054 103.154 111.414 102.972 111.839 102.799C112.263 102.617 112.731 102.526 113.243 102.526C114.014 102.526 114.573 102.764 114.92 103.241C115.266 103.709 115.44 104.337 115.44 105.126V109H114.556L114.465 108.246H114.426C114.122 108.497 113.797 108.714 113.451 108.896C113.104 109.069 112.731 109.156 112.333 109.156ZM112.645 108.298C112.948 108.298 113.234 108.229 113.503 108.09C113.771 107.943 114.057 107.73 114.361 107.453V105.698C113.832 105.767 113.386 105.85 113.022 105.945C112.666 106.04 112.376 106.153 112.151 106.283C111.934 106.413 111.774 106.565 111.67 106.738C111.574 106.903 111.527 107.085 111.527 107.284C111.527 107.648 111.635 107.908 111.852 108.064C112.068 108.22 112.333 108.298 112.645 108.298ZM119.559 111.912C119.169 111.912 118.814 111.873 118.493 111.795C118.173 111.726 117.895 111.617 117.661 111.47C117.436 111.323 117.258 111.145 117.128 110.937C117.007 110.729 116.946 110.486 116.946 110.209C116.946 109.94 117.029 109.685 117.193 109.442C117.358 109.199 117.583 108.978 117.869 108.779V108.727C117.713 108.632 117.579 108.502 117.466 108.337C117.362 108.164 117.31 107.951 117.31 107.7C117.31 107.431 117.384 107.197 117.531 106.998C117.679 106.799 117.835 106.643 117.999 106.53V106.478C117.791 106.305 117.601 106.075 117.427 105.789C117.263 105.494 117.18 105.156 117.18 104.775C117.18 104.428 117.241 104.116 117.362 103.839C117.492 103.562 117.666 103.328 117.882 103.137C118.099 102.938 118.35 102.786 118.636 102.682C118.931 102.578 119.239 102.526 119.559 102.526C119.733 102.526 119.893 102.543 120.04 102.578C120.196 102.604 120.335 102.639 120.456 102.682H122.653V103.501H121.353C121.501 103.648 121.622 103.835 121.717 104.06C121.821 104.285 121.873 104.532 121.873 104.801C121.873 105.139 121.813 105.447 121.691 105.724C121.57 105.993 121.405 106.222 121.197 106.413C120.989 106.595 120.742 106.738 120.456 106.842C120.179 106.946 119.88 106.998 119.559 106.998C119.403 106.998 119.243 106.981 119.078 106.946C118.914 106.903 118.758 106.846 118.61 106.777C118.498 106.872 118.402 106.981 118.324 107.102C118.246 107.215 118.207 107.358 118.207 107.531C118.207 107.73 118.285 107.895 118.441 108.025C118.597 108.155 118.892 108.22 119.325 108.22H120.547C121.284 108.22 121.834 108.341 122.198 108.584C122.571 108.818 122.757 109.199 122.757 109.728C122.757 110.023 122.684 110.3 122.536 110.56C122.389 110.829 122.177 111.063 121.899 111.262C121.622 111.461 121.284 111.617 120.885 111.73C120.495 111.851 120.053 111.912 119.559 111.912ZM119.559 106.283C119.741 106.283 119.91 106.248 120.066 106.179C120.231 106.11 120.374 106.01 120.495 105.88C120.625 105.75 120.725 105.594 120.794 105.412C120.864 105.221 120.898 105.009 120.898 104.775C120.898 104.307 120.768 103.947 120.508 103.696C120.248 103.436 119.932 103.306 119.559 103.306C119.187 103.306 118.87 103.436 118.61 103.696C118.35 103.947 118.22 104.307 118.22 104.775C118.22 105.009 118.255 105.221 118.324 105.412C118.394 105.594 118.489 105.75 118.61 105.88C118.74 106.01 118.883 106.11 119.039 106.179C119.204 106.248 119.377 106.283 119.559 106.283ZM119.715 111.171C120.019 111.171 120.292 111.132 120.534 111.054C120.786 110.985 120.998 110.889 121.171 110.768C121.345 110.655 121.479 110.521 121.574 110.365C121.67 110.209 121.717 110.049 121.717 109.884C121.717 109.589 121.609 109.386 121.392 109.273C121.176 109.16 120.859 109.104 120.443 109.104H119.351C119.23 109.104 119.096 109.095 118.948 109.078C118.81 109.069 118.671 109.043 118.532 109C118.307 109.165 118.142 109.338 118.038 109.52C117.934 109.702 117.882 109.884 117.882 110.066C117.882 110.404 118.043 110.673 118.363 110.872C118.693 111.071 119.143 111.171 119.715 111.171ZM126.361 109.156C125.937 109.156 125.538 109.082 125.165 108.935C124.801 108.779 124.481 108.562 124.203 108.285C123.935 107.999 123.722 107.652 123.566 107.245C123.41 106.838 123.332 106.374 123.332 105.854C123.332 105.334 123.41 104.87 123.566 104.463C123.731 104.047 123.943 103.696 124.203 103.41C124.472 103.124 124.775 102.907 125.113 102.76C125.451 102.604 125.802 102.526 126.166 102.526C126.565 102.526 126.92 102.595 127.232 102.734C127.553 102.873 127.817 103.072 128.025 103.332C128.242 103.592 128.407 103.904 128.519 104.268C128.632 104.632 128.688 105.039 128.688 105.49C128.688 105.603 128.684 105.715 128.675 105.828C128.675 105.932 128.667 106.023 128.649 106.101H124.385C124.429 106.777 124.637 107.314 125.009 107.713C125.391 108.103 125.885 108.298 126.491 108.298C126.795 108.298 127.072 108.255 127.323 108.168C127.583 108.073 127.83 107.951 128.064 107.804L128.441 108.506C128.164 108.679 127.856 108.831 127.518 108.961C127.18 109.091 126.795 109.156 126.361 109.156ZM124.372 105.334H127.752C127.752 104.693 127.614 104.207 127.336 103.878C127.068 103.54 126.686 103.371 126.192 103.371C125.967 103.371 125.75 103.414 125.542 103.501C125.343 103.588 125.161 103.718 124.996 103.891C124.832 104.056 124.693 104.259 124.58 104.502C124.476 104.745 124.407 105.022 124.372 105.334Z" fill="#394452"/>
</g>
</g>
</g>
</g>
</g>
</g>
<defs>
<filter id="filter0_d_1_14" x="-6489" y="-1844.53" width="9386" height="13277.5" filterUnits="userSpaceOnUse" color-interpolation-filters="sRGB">
<feFlood flood-opacity="0" result="BackgroundImageFix"/>
<feColorMatrix in="SourceAlpha" type="matrix" values="0 0 0 0 0 0 0 0 0 0 0 0 0 0 0 0 0 0 127 0" result="hardAlpha"/>
<feOffset dy="4"/>
<feGaussianBlur stdDeviation="100"/>
<feColorMatrix type="matrix" values="0 0 0 0 0 0 0 0 0 0 0 0 0 0 0 0 0 0 0.06 0"/>
<feBlend mode="normal" in2="BackgroundImageFix" result="effect1_dropShadow_1_14"/>
<feBlend mode="normal" in="SourceGraphic" in2="effect1_dropShadow_1_14" result="shape"/>
</filter>
</defs>
</svg>
